<svg width="180" height="78" viewBox="0 0 180 78" fill="none" xmlns="http://www.w3.org/2000/svg">
<path d="M-0.00390625 44.8294H5.38122V31.8666H16.9592V44.8294H24.0368V54.4457H16.9592V63.2542C16.9592 64.562 17.1516 65.6262 17.5362 66.4468C17.9209 67.2418 18.6261 67.6392 19.6518 67.6392C20.3442 67.6392 20.934 67.4854 21.4212 67.1777C21.9084 66.8699 22.2033 66.6648 22.3059 66.5622L26.3063 74.8707C26.1268 75.0246 25.5626 75.3066 24.6138 75.7169C23.6907 76.1272 22.5111 76.4991 21.075 76.8324C19.639 77.1658 18.0363 77.3325 16.2669 77.3325C13.1127 77.3325 10.5099 76.4478 8.45844 74.6784C6.40696 72.8833 5.38122 70.1267 5.38122 66.4084V54.4457H-0.00390625V44.8294Z" fill="white"/>
<path d="M41.3294 76.4093H29.6359V44.8294H41.3294V49.7145H41.137C41.3422 49.1247 41.8422 48.381 42.6372 47.4835C43.4321 46.5603 44.5476 45.7397 45.9836 45.0217C47.4197 44.278 49.1763 43.9062 51.2534 43.9062C52.715 43.9062 54.0613 44.137 55.2922 44.5986C56.5231 45.0345 57.4206 45.4576 57.9848 45.8679L53.4459 55.3688C53.0869 54.9329 52.4458 54.4841 51.5226 54.0226C50.6251 53.5353 49.4968 53.2917 48.1377 53.2917C46.5734 53.2917 45.2785 53.6892 44.2527 54.4841C43.2526 55.2791 42.509 56.2407 42.0217 57.369C41.5601 58.4973 41.3294 59.5616 41.3294 60.5616V76.4093Z" fill="white"/>
<path d="M84.9477 59.4462L98.372 76.4093H85.4093L77.947 66.6776L70.4848 76.4093H58.4067L71.7926 60.3693L59.753 44.8294H72.8312L78.6779 52.9455L84.7938 44.8294H96.6411L84.9477 59.4462Z" fill="white"/>
<path d="M100.137 44.8294H112.638L120.255 65.7929L127.909 44.8294H140.333L127.101 76.4093H113.408L100.137 44.8294Z" fill="white"/>
<path d="M156.748 76.4093H145.016V23.4812H156.748V76.4093Z" fill="white"/>
<path d="M172.134 77.3325C170.237 77.3325 168.596 76.6529 167.211 75.2938C165.852 73.9091 165.172 72.2679 165.172 70.3703C165.172 68.4214 165.852 66.7674 167.211 65.4083C168.596 64.0235 170.237 63.3311 172.134 63.3311C174.083 63.3311 175.737 64.0235 177.096 65.4083C178.456 66.7674 179.135 68.4214 179.135 70.3703C179.135 72.2679 178.456 73.9091 177.096 75.2938C175.737 76.6529 174.083 77.3325 172.134 77.3325Z" fill="white"/>
<path d="M29.11 11.2734C30.4169 11.2734 31.5691 11.5475 32.5669 12.0955C33.5646 12.6295 34.3445 13.4586 34.9066 14.5828C35.4827 15.7069 35.7708 17.1543 35.7708 18.9249V29.0847H29.4683V19.8945C29.4683 18.686 29.2857 17.7094 28.9203 16.9646C28.5549 16.2199 27.8312 15.8475 26.7492 15.8475C26.1028 15.8475 25.5337 16.0161 25.0419 16.3533C24.55 16.6906 24.1706 17.1614 23.9036 17.7656C23.6366 18.3558 23.5031 19.0654 23.5031 19.8945V29.0847H17.6223V19.8945C17.6223 18.686 17.4185 17.7094 17.011 16.9646C16.6175 16.2199 15.9149 15.8475 14.9031 15.8475C14.2567 15.8475 13.6876 16.0161 13.1958 16.3533C12.704 16.6765 12.3246 17.1403 12.0576 17.7445C11.8046 18.3347 11.6782 19.0514 11.6782 19.8945V29.0847H5.31247V11.7793H11.6782V14.2455C11.8468 13.8099 12.2121 13.3672 12.7742 12.9176C13.3504 12.4538 14.06 12.0674 14.9031 11.7583C15.7463 11.435 16.6386 11.2734 17.5801 11.2734C18.6059 11.2734 19.4631 11.428 20.1517 11.7372C20.8402 12.0323 21.4023 12.4328 21.8379 12.9386C22.2876 13.4445 22.646 13.9926 22.9129 14.5828C23.1097 14.0769 23.4961 13.571 24.0723 13.0651C24.6625 12.5452 25.3932 12.1166 26.2644 11.7793C27.1497 11.4421 28.0982 11.2734 29.11 11.2734Z" fill="white"/>
<path d="M52.9095 29.0847V26.2813C52.783 26.5623 52.4598 26.9698 51.9399 27.5038C51.434 28.0378 50.7595 28.5226 49.9164 28.9582C49.0732 29.3798 48.0896 29.5906 46.9654 29.5906C45.2791 29.5906 43.8036 29.1831 42.5389 28.368C41.2742 27.539 40.2906 26.4359 39.5879 25.0587C38.8853 23.6676 38.534 22.1288 38.534 20.4426C38.534 18.7563 38.8853 17.2246 39.5879 15.8475C40.2906 14.4563 41.2742 13.3462 42.5389 12.5171C43.8036 11.688 45.2791 11.2734 46.9654 11.2734C48.0474 11.2734 48.9959 11.4491 49.811 11.8004C50.626 12.1377 51.2865 12.5452 51.7923 13.023C52.2982 13.4867 52.6495 13.9153 52.8463 14.3087V11.7793H59.2119V29.0847H52.9095ZM44.8154 20.4426C44.8154 21.2295 44.9981 21.9391 45.3634 22.5715C45.7288 23.1898 46.2136 23.6746 46.8178 24.0259C47.4361 24.3772 48.1177 24.5528 48.8624 24.5528C49.6353 24.5528 50.3169 24.3772 50.9071 24.0259C51.4972 23.6746 51.961 23.1898 52.2982 22.5715C52.6495 21.9391 52.8252 21.2295 52.8252 20.4426C52.8252 19.6556 52.6495 18.953 52.2982 18.3347C51.961 17.7024 51.4972 17.2105 50.9071 16.8592C50.3169 16.4939 49.6353 16.3112 48.8624 16.3112C48.1177 16.3112 47.4361 16.4939 46.8178 16.8592C46.2136 17.2105 45.7288 17.7024 45.3634 18.3347C44.9981 18.953 44.8154 19.6556 44.8154 20.4426Z" fill="white"/>
<path d="M69.6859 29.0847H63.257V0.0808105H69.6859V29.0847Z" fill="white"/>
<path d="M87.2443 29.0847V26.2813C87.1178 26.5623 86.7946 26.9698 86.2747 27.5038C85.7688 28.0378 85.0943 28.5226 84.2511 28.9582C83.408 29.3798 82.4243 29.5906 81.3001 29.5906C79.6139 29.5906 78.1384 29.1831 76.8737 28.368C75.609 27.539 74.6253 26.4359 73.9227 25.0587C73.2201 23.6676 72.8688 22.1288 72.8688 20.4426C72.8688 18.7563 73.2201 17.2246 73.9227 15.8475C74.6253 14.4563 75.609 13.3462 76.8737 12.5171C78.1384 11.688 79.6139 11.2734 81.3001 11.2734C82.3822 11.2734 83.3307 11.4491 84.1457 11.8004C84.9608 12.1377 85.6212 12.5452 86.1271 13.023C86.633 13.4867 86.9843 13.9153 87.181 14.3087V11.7793H93.5467V29.0847H87.2443ZM79.1501 20.4426C79.1501 21.2295 79.3328 21.9391 79.6982 22.5715C80.0635 23.1898 80.5483 23.6746 81.1526 24.0259C81.7709 24.3772 82.4524 24.5528 83.1972 24.5528C83.9701 24.5528 84.6516 24.3772 85.2418 24.0259C85.832 23.6746 86.2957 23.1898 86.633 22.5715C86.9843 21.9391 87.16 21.2295 87.16 20.4426C87.16 19.6556 86.9843 18.953 86.633 18.3347C86.2957 17.7024 85.832 17.2105 85.2418 16.8592C84.6516 16.4939 83.9701 16.3112 83.1972 16.3112C82.4524 16.3112 81.7709 16.4939 81.1526 16.8592C80.5483 17.2105 80.0635 17.7024 79.6982 18.3347C79.3328 18.953 79.1501 19.6556 79.1501 20.4426Z" fill="white"/>
<path d="M109.522 11.2734C110.731 11.2734 111.911 11.5194 113.063 12.0112C114.216 12.503 115.164 13.2829 115.909 14.3509C116.654 15.4048 117.026 16.796 117.026 18.5244V29.0847H110.597V19.5783C110.597 18.3417 110.302 17.4143 109.712 16.796C109.122 16.1636 108.349 15.8475 107.393 15.8475C106.761 15.8475 106.164 16.0161 105.602 16.3533C105.054 16.6765 104.604 17.1403 104.253 17.7445C103.915 18.3347 103.747 19.0163 103.747 19.7891V29.0847H97.3388V11.7793H103.747V14.3298C103.915 13.8661 104.267 13.4024 104.801 12.9386C105.349 12.4609 106.03 12.0674 106.845 11.7583C107.674 11.435 108.567 11.2734 109.522 11.2734Z" fill="white"/>
<path d="M129.835 38.3381C128.626 38.3381 127.425 38.2327 126.23 38.022C125.05 37.8112 123.947 37.4528 122.921 36.947C121.895 36.4411 121.031 35.7455 120.328 34.8602L124.08 30.9607C124.403 31.3401 124.797 31.7125 125.26 32.0778C125.738 32.4432 126.321 32.7453 127.01 32.9842C127.713 33.2231 128.563 33.3425 129.56 33.3425C130.488 33.3425 131.296 33.1809 131.985 32.8577C132.673 32.5345 133.207 32.0638 133.586 31.4455C133.98 30.8272 134.177 30.0754 134.177 29.1901V28.7685H140.479V29.5695C140.479 31.4806 140.001 33.0896 139.046 34.3965C138.104 35.7033 136.833 36.687 135.231 37.3474C133.629 38.0079 131.83 38.3381 129.835 38.3381ZM134.177 29.0847V26.2813C134.05 26.5623 133.727 26.9698 133.207 27.5038C132.701 28.0378 132.027 28.5226 131.184 28.9582C130.34 29.3798 129.357 29.5906 128.233 29.5906C126.546 29.5906 125.071 29.1831 123.806 28.368C122.541 27.539 121.558 26.4359 120.855 25.0587C120.152 23.6676 119.801 22.1288 119.801 20.4426C119.801 18.7563 120.152 17.2246 120.855 15.8475C121.558 14.4563 122.541 13.3462 123.806 12.5171C125.071 11.688 126.546 11.2734 128.233 11.2734C129.315 11.2734 130.263 11.4491 131.078 11.8004C131.893 12.1377 132.554 12.5452 133.06 13.023C133.565 13.4867 133.917 13.9153 134.113 14.3087V11.7793H140.479V29.0847H134.177ZM126.083 20.4426C126.083 21.2295 126.265 21.9391 126.631 22.5715C126.996 23.1898 127.481 23.6746 128.085 24.0259C128.703 24.3772 129.385 24.5528 130.13 24.5528C130.902 24.5528 131.584 24.3772 132.174 24.0259C132.764 23.6746 133.228 23.1898 133.565 22.5715C133.917 21.9391 134.092 21.2295 134.092 20.4426C134.092 19.6556 133.917 18.953 133.565 18.3347C133.228 17.7024 132.764 17.2105 132.174 16.8592C131.584 16.4939 130.902 16.3112 130.13 16.3112C129.385 16.3112 128.703 16.4939 128.085 16.8592C127.481 17.2105 126.996 17.7024 126.631 18.3347C126.265 18.953 126.083 19.6556 126.083 20.4426Z" fill="white"/>
</svg>
