<svg width="27" height="28" viewBox="0 0 27 28" fill="none" xmlns="http://www.w3.org/2000/svg">
<g clip-path="url(#clip0_1_118)">
<path d="M24.9521 0.763916H2.21571C1.1574 0.763916 0.299561 1.62176 0.299561 2.68007V25.4165C0.299561 26.4748 1.1574 27.3326 2.21571 27.3326H14.492V17.058H11.0412V13.0364H14.492V10.0767C14.492 6.64454 16.5874 4.77642 19.649 4.77642C21.1153 4.77642 22.3755 4.88568 22.7428 4.93453V8.52177H20.6317C18.9659 8.52177 18.6434 9.31332 18.6434 10.475V13.0364H22.6261L22.1072 17.058H18.6434V27.3326H24.9521C26.0104 27.3326 26.8683 26.4748 26.8683 25.4165V2.68007C26.8683 1.62176 26.0104 0.763916 24.9521 0.763916V0.763916Z" fill="#808080"/>
</g>
<defs>
<clipPath id="clip0_1_118">
<rect width="26.5687" height="26.5687" fill="white" transform="translate(0.299561 0.763916)"/>
</clipPath>
</defs>
</svg>
