<svg width="27" height="28" viewBox="0 0 27 28" fill="none" xmlns="http://www.w3.org/2000/svg">
<g clip-path="url(#clip0_1_119)">
<path d="M25.5754 1.76732C24.9066 1.09828 24.105 0.763916 23.1712 0.763916H3.41749C2.48339 0.763916 1.68209 1.09841 1.01305 1.76732C0.344134 2.43606 0.00976562 3.23748 0.00976562 4.1714V23.925C0.00976562 24.8587 0.344074 25.6603 1.01305 26.3291C1.68209 26.998 2.48357 27.3326 3.41749 27.3326H23.171C24.1046 27.3326 24.9064 26.998 25.5752 26.3291C26.2443 25.6603 26.5783 24.8587 26.5783 23.925V4.1714C26.5783 3.2373 26.2443 2.4363 25.5754 1.76732ZM9.54954 10.3379C10.5931 9.329 11.8472 8.82432 13.3117 8.82432C14.7875 8.82432 16.0473 9.329 17.091 10.3379C18.1348 11.3469 18.6564 12.5665 18.6564 13.9963C18.6564 15.426 18.1348 16.6457 17.091 17.6544C16.0473 18.6637 14.788 19.1683 13.3117 19.1683C11.8472 19.1683 10.5932 18.6633 9.54954 17.6544C8.50578 16.6455 7.98396 15.426 7.98396 13.9963C7.98396 12.5665 8.50578 11.347 9.54954 10.3379ZM23.5691 23.216C23.5691 23.5156 23.465 23.7663 23.2576 23.9683C23.0496 24.17 22.8021 24.271 22.5135 24.271H4.02298C3.7232 24.271 3.4722 24.17 3.27057 23.9683C3.06864 23.7668 2.96777 23.5156 2.96777 23.216V12.007H5.40662C5.17609 12.7336 5.0608 13.489 5.0608 14.273C5.0608 16.4875 5.86791 18.3755 7.48232 19.9383C9.09691 21.5006 11.0399 22.2821 13.3116 22.2821C14.8107 22.2821 16.1944 21.9244 17.4633 21.2095C18.7318 20.4942 19.7344 19.5229 20.4729 18.2947C21.2111 17.0665 21.5801 15.7259 21.5801 14.273C21.5801 13.4891 21.4644 12.7338 21.2338 12.007H23.5692V23.2161H23.5691V23.216ZM23.5691 7.76912C23.5691 8.10355 23.4538 8.38611 23.2228 8.6167C22.9923 8.84747 22.7099 8.9627 22.3753 8.9627H19.3656C19.0314 8.9627 18.7486 8.84741 18.5181 8.6167C18.2875 8.38611 18.1722 8.10355 18.1722 7.76912V4.91532C18.1722 4.5924 18.2875 4.3128 18.5181 4.07634C18.7486 3.84 19.0315 3.72168 19.3656 3.72168H22.3753C22.7099 3.72168 22.9923 3.83994 23.2228 4.07634C23.4537 4.3128 23.5691 4.5924 23.5691 4.91532V7.76912Z" fill="#808080"/>
</g>
<defs>
<clipPath id="clip0_1_119">
<rect width="26.5687" height="26.5687" fill="white" transform="translate(0.00878906 0.763916)"/>
</clipPath>
</defs>
</svg>
