<svg width="28" height="28" viewBox="0 0 28 28" fill="none" xmlns="http://www.w3.org/2000/svg">
<g clip-path="url(#clip0_1_120)">
<path d="M27.2868 5.81022C26.2988 6.24362 25.246 6.53089 24.1484 6.67038C25.2776 5.9962 26.1394 4.93677 26.5446 3.65981C25.4918 4.2875 24.3294 4.73086 23.0906 4.97828C22.091 3.91387 20.6663 3.25464 19.112 3.25464C16.0964 3.25464 13.6687 5.70228 13.6687 8.70288C13.6687 9.13462 13.7053 9.54976 13.7949 9.94497C9.26662 9.72412 5.25973 7.55379 2.56799 4.24764C2.09805 5.06297 1.8224 5.9962 1.8224 7.00082C1.8224 8.8872 2.79382 10.5594 4.24181 11.5275C3.36671 11.5109 2.50821 11.2568 1.78089 10.8566C1.78089 10.8732 1.78089 10.8948 1.78089 10.9164C1.78089 13.5633 3.66893 15.7619 6.1448 16.2683C5.70143 16.3895 5.21821 16.4477 4.71673 16.4477C4.36801 16.4477 4.01598 16.4277 3.68553 16.3547C4.39126 18.5117 6.39388 20.0975 8.7751 20.149C6.92193 21.5987 4.56894 22.4721 2.02167 22.4721C1.57498 22.4721 1.14656 22.4522 0.71814 22.3974C3.13091 23.9533 5.99037 24.8417 9.074 24.8417C19.097 24.8417 24.5768 16.539 24.5768 9.34219C24.5768 9.10141 24.5685 8.86894 24.5569 8.63812C25.6379 7.87095 26.5462 6.91282 27.2868 5.81022Z" fill="#808080"/>
</g>
<defs>
<clipPath id="clip0_1_120">
<rect width="26.5687" height="26.5687" fill="white" transform="translate(0.71814 0.763916)"/>
</clipPath>
</defs>
</svg>
