<svg width="27" height="28" viewBox="0 0 27 28" fill="none" xmlns="http://www.w3.org/2000/svg">
<g clip-path="url(#clip0_1_121)">
<path d="M25.8669 6.67546C25.1462 5.39352 24.3641 5.15772 22.7716 5.06805C21.1808 4.96012 17.1806 4.91528 13.715 4.91528C10.2428 4.91528 6.24093 4.96012 4.65179 5.06639C3.06265 5.15772 2.27887 5.39186 1.55156 6.67546C0.809293 7.95574 0.427368 10.1609 0.427368 14.0433C0.427368 14.0466 0.427368 14.0483 0.427368 14.0483C0.427368 14.0516 0.427368 14.0533 0.427368 14.0533V14.0566C0.427368 17.9223 0.809293 20.1441 1.55156 21.4111C2.27887 22.6931 3.06099 22.9255 4.65013 23.0335C6.24093 23.1265 10.2428 23.1813 13.715 23.1813C17.1806 23.1813 21.1808 23.1265 22.7733 23.0351C24.3658 22.9272 25.1479 22.6947 25.8686 21.4128C26.6175 20.1458 26.9961 17.924 26.9961 14.0582C26.9961 14.0582 26.9961 14.0533 26.9961 14.0499C26.9961 14.0499 26.9961 14.0466 26.9961 14.045C26.9961 10.1609 26.6175 7.95574 25.8669 6.67546ZM10.3906 19.0299V9.06664L18.6933 14.0483L10.3906 19.0299Z" fill="#808080"/>
</g>
<defs>
<clipPath id="clip0_1_121">
<rect width="26.5687" height="26.5687" fill="white" transform="translate(0.427368 0.763916)"/>
</clipPath>
</defs>
</svg>
